<mxfile host="65bd71144e">
    <diagram id="JRa3MvKnhJJbdsFDvuLk" name="Page-1">
        <mxGraphModel dx="832" dy="355" grid="1" gridSize="10" guides="1" tooltips="1" connect="1" arrows="1" fold="1" page="1" pageScale="1" pageWidth="850" pageHeight="1100" math="0" shadow="0">
            <root>
                <mxCell id="0"/>
                <mxCell id="1" parent="0"/>
                <mxCell id="12" style="edgeStyle=none;html=1;entryX=0;entryY=0.5;entryDx=0;entryDy=0;" edge="1" parent="1" source="4" target="10">
                    <mxGeometry relative="1" as="geometry"/>
                </mxCell>
                <mxCell id="13" style="edgeStyle=none;html=1;entryX=0;entryY=0.5;entryDx=0;entryDy=0;" edge="1" parent="1" source="4" target="11">
                    <mxGeometry relative="1" as="geometry"/>
                </mxCell>
                <mxCell id="4" value="Actor" style="shape=umlActor;verticalLabelPosition=bottom;verticalAlign=top;html=1;outlineConnect=0;" parent="1" vertex="1">
                    <mxGeometry x="230" y="220" width="30" height="60" as="geometry"/>
                </mxCell>
                <mxCell id="5" value="DB" style="shape=datastore;whiteSpace=wrap;html=1;" vertex="1" parent="1">
                    <mxGeometry x="660" y="220" width="60" height="60" as="geometry"/>
                </mxCell>
                <mxCell id="8" value="Browser" style="swimlane;" vertex="1" parent="1">
                    <mxGeometry x="360" y="150" width="220" height="250" as="geometry"/>
                </mxCell>
                <mxCell id="10" value="check in" style="ellipse;whiteSpace=wrap;html=1;" vertex="1" parent="8">
                    <mxGeometry x="50" y="40" width="110" height="40" as="geometry"/>
                </mxCell>
                <mxCell id="11" value="check out" style="ellipse;whiteSpace=wrap;html=1;" vertex="1" parent="8">
                    <mxGeometry x="50" y="140" width="110" height="40" as="geometry"/>
                </mxCell>
                <mxCell id="14" style="edgeStyle=none;html=1;entryX=0;entryY=0.5;entryDx=0;entryDy=0;" edge="1" parent="1" source="11" target="5">
                    <mxGeometry relative="1" as="geometry"/>
                </mxCell>
                <mxCell id="15" style="edgeStyle=none;html=1;" edge="1" parent="1" source="10">
                    <mxGeometry relative="1" as="geometry">
                        <mxPoint x="660" y="250" as="targetPoint"/>
                    </mxGeometry>
                </mxCell>
            </root>
        </mxGraphModel>
    </diagram>
</mxfile>